<svg data-v-423bf9ae="" xmlns="http://www.w3.org/2000/svg" viewBox="0 0 353 90" class="iconLeft"><!----><!----><!----><g data-v-423bf9ae="" id="e2eb5c8e-724e-4445-bdac-6dbc70a2f3b9" fill="black" transform="matrix(5.602240876404433,0,0,5.602240876404433,113.06143335973823,-3.7114838079280332)"><path d="M1.23 11.63L1.23 11.63Q1.39 11.60 1.69 11.60Q1.98 11.60 2.47 11.84L2.47 11.84Q2.47 11.89 2.47 12.04Q2.47 12.20 2.54 12.41Q2.61 12.63 2.76 12.82L2.76 12.82Q3.09 13.23 3.84 13.23Q4.59 13.23 4.83 12.72L4.83 12.72Q5.02 12.26 4.76 11.76L4.76 11.76Q4.56 11.39 3.70 11.05L3.70 11.05Q3.55 11.00 3.30 10.90L3.30 10.90Q1.03 10.09 1.00 8.55L1.00 8.55Q1.00 7.85 1.39 7.38L1.39 7.38Q2.13 6.48 3.89 6.48L3.89 6.48Q5.04 6.48 5.84 6.96Q6.64 7.44 6.64 8.13L6.64 8.13Q6.64 8.91 5.88 8.91L5.88 8.91Q5.34 8.91 5.12 8.79Q4.90 8.67 4.90 8.66L4.90 8.66Q4.90 8.62 4.90 8.59L4.90 8.59Q4.90 7.31 3.66 7.31L3.66 7.31Q3.23 7.31 2.98 7.53Q2.73 7.75 2.73 8.18Q2.73 8.61 3.03 8.89Q3.34 9.17 4.21 9.52Q5.08 9.86 5.33 9.99L5.33 9.99Q6.86 10.73 6.86 11.92L6.86 11.92Q6.86 12.94 6.00 13.49Q5.13 14.04 3.70 14.04L3.70 14.04Q2.75 14.04 2.26 13.88Q1.78 13.71 1.53 13.58Q1.28 13.44 1.12 13.29Q0.96 13.14 0.85 12.97L0.85 12.97Q0.55 12.54 0.68 12.10L0.68 12.10Q0.78 11.72 1.23 11.63ZM16.06 10.08L16.06 10.08Q16.06 10.98 15.74 11.76Q15.42 12.55 14.83 13.05L14.83 13.05Q13.64 14.05 11.70 14.05L11.70 14.05Q10.73 14.05 9.91 13.60Q9.09 13.14 8.61 12.31Q8.12 11.49 8.12 10.35Q8.12 9.20 8.71 8.29L8.71 8.29Q9.86 6.48 12.58 6.48L12.58 6.48Q13.95 6.48 14.98 7.42L14.98 7.42Q16.06 8.39 16.06 10.08ZM10.14 10.28Q10.14 11.45 10.81 12.33Q11.49 13.20 12.40 13.20L12.40 13.20Q14.08 13.20 14.08 10.46L14.08 10.46Q14.08 9.10 13.46 8.25Q12.84 7.40 11.87 7.40L11.87 7.40Q11.39 7.40 11.03 7.65Q10.68 7.90 10.49 8.31L10.49 8.31Q10.14 9.11 10.14 10.28ZM18.09 5.08L18.09 5.08Q17.98 4.42 17.23 4.33L17.23 4.33Q17.18 3.99 17.18 3.95Q17.18 3.90 17.19 3.85L17.19 3.85Q18.48 3.34 19.80 3.34L19.80 3.34Q19.87 3.34 19.93 3.34L19.93 3.34Q20.08 3.53 20.13 4.20Q20.17 4.87 20.17 7.33Q20.17 9.79 20.10 13.80L20.10 13.80Q19.65 13.93 19.02 13.93Q18.39 13.93 18.04 13.79L18.04 13.79Q18.16 12.87 18.16 10.29Q18.16 7.72 18.09 5.08ZM25.63 12.43L25.63 12.43Q25.87 12.65 25.91 12.89L25.91 12.89Q25.01 14.04 23.82 14.04L23.82 14.04Q23.05 14.04 22.73 13.43L22.73 13.43Q22.46 12.89 22.39 11.57L22.39 11.57Q22.34 9.52 22.34 7.75L22.34 7.75Q21.64 7.72 21.49 7.68L21.49 7.68Q21.45 7.63 21.45 7.28Q21.45 6.93 21.49 6.90L21.49 6.90L22.35 6.82Q22.35 6.67 22.39 5.44L22.39 5.44Q22.74 5.09 23.40 4.90Q24.06 4.72 24.57 4.72L24.57 4.72Q24.47 5.58 24.41 6.82L24.41 6.82Q24.64 6.82 25.77 6.90L25.77 6.90Q25.81 7.01 25.81 7.34Q25.81 7.67 25.77 7.74L25.77 7.74Q25.14 7.82 24.37 7.84L24.37 7.84Q24.34 8.65 24.34 9.90Q24.34 11.14 24.40 12.24L24.40 12.24Q24.42 12.66 24.82 12.66Q25.23 12.66 25.63 12.43ZM33.65 9.94L33.65 9.94L33.61 12.24Q33.61 12.27 33.61 12.30L33.61 12.30Q33.61 12.68 33.96 12.68L33.96 12.68Q34.23 12.68 34.54 12.50L34.54 12.50Q34.64 12.58 34.72 12.73Q34.81 12.88 34.82 12.96L34.82 12.96Q33.97 14.04 33.06 14.04Q32.15 14.04 31.79 13.15L31.79 13.15Q31.16 13.58 30.51 13.81Q29.85 14.04 29.38 14.04Q28.92 14.04 28.52 13.94Q28.12 13.84 27.77 13.61L27.77 13.61Q27.04 13.13 27.04 12.03L27.04 12.03Q27.04 11.44 27.36 11.00Q27.69 10.56 28.25 10.31L28.25 10.31Q29.32 9.82 30.81 9.78L30.81 9.78L31.60 9.75Q31.65 9.20 31.65 8.88L31.65 8.88Q31.65 8.16 31.37 7.79Q31.10 7.42 30.34 7.42L30.34 7.42Q29.89 7.42 29.64 7.73Q29.39 8.05 29.39 8.66L29.39 8.66Q29.39 8.74 29.16 8.86L29.16 8.86Q28.77 9.04 28.39 9.04Q28 9.04 27.77 8.83Q27.54 8.61 27.54 8.21Q27.54 7.81 27.83 7.46Q28.12 7.12 28.59 6.92L28.59 6.92Q29.54 6.55 30.76 6.55L30.76 6.55Q32.03 6.55 32.62 6.95L32.62 6.95Q33.15 7.31 33.38 7.97L33.38 7.97Q33.65 8.74 33.65 9.94ZM31.60 12.43L31.60 12.43Q31.51 11.93 31.51 11.56Q31.51 11.20 31.53 10.54L31.53 10.54L30.58 10.58Q29.85 10.58 29.46 10.94Q29.06 11.29 29.06 11.83Q29.06 12.36 29.29 12.59Q29.52 12.82 30.23 12.82Q30.94 12.82 31.60 12.43ZM42.79 8.22L42.79 8.22Q42.79 9.26 41.71 9.26L41.71 9.26Q41.34 9.26 41.18 9.17Q41.02 9.08 41.02 9.07L41.02 9.07Q41.04 8.94 41.04 8.80L41.04 8.80Q41.04 8.16 40.62 7.78Q40.21 7.40 39.51 7.40Q38.81 7.40 38.39 8.00Q37.97 8.60 37.97 9.86Q37.97 11.12 38.69 12.08Q39.42 13.04 40.32 13.04L40.32 13.04Q41.09 13.04 41.86 12.42L41.86 12.42Q42.04 12.28 42.22 12.08L42.22 12.08Q42.37 12.17 42.53 12.35Q42.69 12.52 42.72 12.68L42.72 12.68Q42.40 13.11 41.75 13.51L41.75 13.51Q40.87 14.04 39.79 14.04Q38.72 14.04 37.84 13.59Q36.96 13.14 36.46 12.30Q35.95 11.46 35.95 10.38L35.95 10.38Q35.95 8.32 37.47 7.20L37.47 7.20Q38.45 6.48 39.85 6.48L39.85 6.48Q41.04 6.48 41.91 6.99L41.91 6.99Q42.31 7.23 42.55 7.55Q42.79 7.87 42.79 8.22Z"></path></g><!----><g data-v-423bf9ae="" id="9f58e048-4bbd-42dd-a50b-6e235dacc842" transform="matrix(3.02033690133878,0,0,3.02033690133878,0.6746095785795205,-6.44676146975133)" stroke="none" fill="black"><circle cx="25.044" cy="25.043" r="6.956"></circle><circle cx="6.956" cy="25.043" r="6.956"></circle><path d="M.172 2.201H13.74v13.568H.172zM18.432 2.201H32v13.568H18.432z"></path></g><!----></svg>